<svg width="56" height="56" viewBox="0 0 56 56" fill="none" xmlns="http://www.w3.org/2000/svg">
<path d="M3.81818 49.0102H12.7273V27.3739L0 17.8284V45.192C0 47.3016 1.70864 49.0102 3.81818 49.0102Z" fill="black"/>
<path d="M43.2727 49.0102H52.1818C54.2914 49.0102 56 47.3016 56 45.1921V17.8284L43.2727 27.3739V49.0102Z" fill="black"/>
<path d="M43.2727 10.8285V27.3739L56 17.8284V12.7376C56 8.01893 50.6132 5.32392 46.8364 8.15574L43.2727 10.8285Z" fill="black"/>
<path fill-rule="evenodd" clip-rule="evenodd" d="M12.7273 27.3739V10.8284L28 22.283L43.2727 10.8285V27.3739L28 38.8284L12.7273 27.3739Z" fill="black"/>
<path d="M0 12.7376V17.8284L12.7273 27.3739V10.8284L9.16364 8.15574C5.38682 5.32392 0 8.01893 0 12.7376Z" fill="black"/>
</svg>
